<?xml version="1.0" encoding="UTF-8"?>
<svg version="1.1" xmlns="http://www.w3.org/2000/svg" width="400" height="400">
<path d="M0 0 C0.78342773 0.16628906 1.56685547 0.33257812 2.37402344 0.50390625 C30.48863601 6.68294198 55.14240947 20.282535 76 40 C76.82242187 40.75796875 77.64484375 41.5159375 78.4921875 42.296875 C101.8616285 64.57428604 114.11566741 95.99668467 114.99609375 127.953125 C115.34500036 161.16903454 101.78135187 191.23329554 79 215 C78.25492187 215.80824219 77.50984375 216.61648438 76.7421875 217.44921875 C56.54337706 238.68130167 28.38150067 251.97579007 0 258 C-0.75764648 258.16371094 -1.51529297 258.32742188 -2.29589844 258.49609375 C-24.28209117 263.03396892 -48.07652584 262.73718625 -70 258 C-70.78342773 257.83371094 -71.56685547 257.66742188 -72.37402344 257.49609375 C-100.48863601 251.31705802 -125.14240947 237.717465 -146 218 C-146.82242188 217.24203125 -147.64484375 216.4840625 -148.4921875 215.703125 C-171.8616285 193.42571396 -184.11566741 162.00331533 -184.99609375 130.046875 C-185.34500036 96.83096546 -171.78135187 66.76670446 -149 43 C-148.25492188 42.19175781 -147.50984375 41.38351563 -146.7421875 40.55078125 C-126.54337706 19.31869833 -98.38150067 6.02420993 -70 0 C-69.24235352 -0.16371094 -68.48470703 -0.32742187 -67.70410156 -0.49609375 C-45.71790883 -5.03396892 -21.92347416 -4.73718625 0 0 Z " fill="#274BA3" transform="translate(235,71)"/>
<path d="M0 0 C3.89005438 0.55212756 6.87015292 0.49135869 10.67236328 -0.3762207 C23.55575276 -1.52107564 34.46632869 -0.42849911 45.04736328 7.6862793 C51.26200782 13.74490765 54.85015431 20.89550099 55.28149414 29.61791992 C55.37258214 41.49018983 51.97505497 51.03823037 43.67236328 59.6237793 C41.10950316 61.7961511 38.47262228 63.7690623 35.67236328 65.6237793 C36.29488602 69.37244886 37.38668289 72.52891917 38.92236328 75.9987793 C40.9444377 80.69763991 42.59435984 85.43126012 44.10986328 90.3112793 C46.19554697 96.75372446 48.81064685 102.76206286 53.67236328 107.6237793 C56.34295179 107.76493091 58.99668566 107.66625037 61.67236328 107.6237793 C61.34236328 105.6437793 61.01236328 103.6637793 60.67236328 101.6237793 C64.54736328 102.4987793 64.54736328 102.4987793 65.67236328 103.6237793 C65.95869046 106.34388747 66.12727882 107.9835278 64.51220703 110.2565918 C60.6024184 113.1619549 55.27721937 112.23307323 50.67236328 111.6237793 C47.48719741 110.46553716 45.21005395 108.84837826 42.67236328 106.6237793 C42.05619141 106.11202148 41.44001953 105.60026367 40.80517578 105.07299805 C32.73506796 97.26265765 30.07546575 83.42976252 28.67236328 72.6237793 C28.67236328 71.3037793 28.67236328 69.9837793 28.67236328 68.6237793 C27.18736328 69.1187793 27.18736328 69.1187793 25.67236328 69.6237793 C21.12777381 70.1429178 17.70039774 70.16926697 13.60986328 67.9987793 C11.67236328 65.6237793 11.67236328 65.6237793 11.10986328 62.5612793 C11.67236328 59.6237793 11.67236328 59.6237793 13.40283203 57.9675293 C17.30632213 55.65634067 21.27684203 55.96721559 25.67236328 56.6237793 C28.07802393 57.71769191 29.62799885 58.90220925 31.67236328 60.6237793 C37.79073763 56.21285825 42.38092421 50.2378888 43.67236328 42.6237793 C43.79297948 40.00668827 43.85744719 37.4279071 43.85986328 34.8112793 C43.87210937 34.12485352 43.88435547 33.43842773 43.89697266 32.73120117 C43.91956669 24.77057151 41.87116345 18.84128053 36.77001953 12.71362305 C30.91710056 6.88250266 25.20703735 5.34421441 17.04736328 5.3112793 C14.92129125 5.39061034 12.79545635 5.48611476 10.67236328 5.6237793 C11.72423828 6.2837793 12.77611328 6.9437793 13.85986328 7.6237793 C18.85634715 11.25943219 22.13542858 15.22319287 23.11767578 21.4440918 C23.28906574 25.72884066 23.29382857 28.63403829 20.98486328 32.3112793 C18.2210742 33.87991634 16.79875488 34.18492651 13.67236328 33.6237793 C11.85986328 32.5612793 11.85986328 32.5612793 10.67236328 30.6237793 C10.48486328 26.9362793 10.48486328 26.9362793 10.67236328 23.6237793 C11.66236328 23.1287793 11.66236328 23.1287793 12.67236328 22.6237793 C13.16736328 24.1087793 13.16736328 24.1087793 13.67236328 25.6237793 C15.68744686 26.35701726 15.68744686 26.35701726 17.67236328 26.6237793 C18.12839168 20.92342428 17.27649081 18.07593683 13.67236328 13.6237793 C12.68236328 13.1287793 12.68236328 13.1287793 11.67236328 12.6237793 C9.62014989 16.86656331 9.33261793 20.76924783 9.25830078 25.40112305 C9.23870804 26.18035629 9.2191153 26.95958954 9.19892883 27.76243591 C9.13748313 30.36194312 9.09133221 32.96142097 9.04736328 35.5612793 C9.03001129 36.45752014 9.0126593 37.35376099 8.99478149 38.27716064 C8.87914802 44.27391108 8.79073046 50.27074548 8.715271 56.26812744 C8.67026837 59.78761471 8.61969471 63.30700163 8.56933594 66.82641602 C8.48504888 73.00244878 8.42742938 79.17829531 8.38726807 85.35476685 C8.36901308 87.78213182 8.34424321 90.20945663 8.31292725 92.63668823 C8.27124571 96.05706557 8.25555831 99.47661773 8.24658203 102.8972168 C8.2291243 103.92455429 8.21166656 104.95189178 8.19367981 106.01036072 C8.08572182 111.52051958 8.08572182 111.52051958 10.69897461 116.16918945 C11.675802 116.88921143 11.675802 116.88921143 12.67236328 117.6237793 C12.67236328 118.2837793 12.67236328 118.9437793 12.67236328 119.6237793 C6.40236328 119.2937793 0.13236328 118.9637793 -6.32763672 118.6237793 C-6.32763672 117.6337793 -6.32763672 116.6437793 -6.32763672 115.6237793 C-5.84021626 115.14974135 -5.35279579 114.67570341 -4.85060501 114.18730068 C-2.92868489 112.21420431 -2.95451869 111.32065493 -2.96014404 108.60743713 C-2.95457489 107.79292084 -2.94900574 106.97840454 -2.94326782 106.13920593 C-2.95709 104.80427849 -2.95709 104.80427849 -2.97119141 103.44238281 C-2.96914703 102.50227356 -2.96710266 101.56216431 -2.96499634 100.59356689 C-2.96198342 97.4797432 -2.98048263 94.3664465 -2.99951172 91.25268555 C-3.00256887 89.09179312 -3.00444533 86.93089873 -3.00518799 84.77000427 C-3.00979446 80.23803177 -3.02423251 75.70623661 -3.04638672 71.17431641 C-3.07465237 65.36237066 -3.08559629 59.5505648 -3.09006882 53.73855686 C-3.0942247 49.2750661 -3.1040439 44.81160367 -3.11594391 40.34812737 C-3.12164534 38.20508997 -3.12640447 36.06204985 -3.13021088 33.91900826 C-3.13708059 30.92414693 -3.15071706 27.92939625 -3.16650391 24.93457031 C-3.16762177 24.04664291 -3.16873962 23.15871552 -3.16989136 22.24388123 C-3.1756015 21.4265451 -3.18131165 20.60920898 -3.18719482 19.7671051 C-3.19016949 19.05937737 -3.19314415 18.35164965 -3.19620895 17.62247562 C-3.33436002 15.52153427 -3.75689794 13.64665181 -4.32763672 11.6237793 C-7.85145359 14.16982526 -7.85145359 14.16982526 -10.32763672 17.6237793 C-10.39658392 18.9972076 -10.4123138 20.37380031 -10.39013672 21.7487793 C-10.36951172 23.0275293 -10.34888672 24.3062793 -10.32763672 25.6237793 C-9.33763672 25.6237793 -8.34763672 25.6237793 -7.32763672 25.6237793 C-6.83263672 24.1387793 -6.83263672 24.1387793 -6.32763672 22.6237793 C-5.66763672 22.6237793 -5.00763672 22.6237793 -4.32763672 22.6237793 C-4.07763672 29.2487793 -4.07763672 29.2487793 -6.32763672 32.6237793 C-9.76513672 33.0612793 -9.76513672 33.0612793 -13.32763672 32.6237793 C-16.10698662 29.79960117 -16.75903975 27.66303629 -16.76513672 23.7487793 C-16.54846316 17.82925767 -14.60232714 14.75521631 -10.28076172 10.70581055 C-8.32708742 8.97036583 -6.34775092 7.28105745 -4.32763672 5.6237793 C-16.1790213 4.58375215 -16.1790213 4.58375215 -26.72216797 9.07299805 C-32.52893591 14.68196854 -37.26826446 20.31093482 -37.72607422 28.7097168 C-37.73893168 30.13936783 -37.73059869 31.56934392 -37.70263672 32.9987793 C-37.69248535 33.74828857 -37.68233398 34.49779785 -37.671875 35.27001953 C-37.41728002 44.35748146 -35.0851399 52.14715033 -28.32763672 58.6237793 C-26.34331313 59.55691049 -26.34331313 59.55691049 -24.32763672 59.6237793 C-23.58513672 58.9844043 -22.84263672 58.3450293 -22.07763672 57.6862793 C-18.83879816 55.25715038 -17.19559631 55.07306962 -13.26513672 55.3112793 C-10.23711388 55.79967008 -8.54155584 56.47904515 -6.32763672 58.6237793 C-5.76513672 62.1237793 -5.76513672 62.1237793 -6.32763672 65.6237793 C-8.55813366 67.88015207 -9.88753877 68.57081622 -13.05419922 68.9519043 C-14.01068359 68.92612305 -14.96716797 68.9003418 -15.95263672 68.8737793 C-16.91427734 68.85831055 -17.87591797 68.8428418 -18.86669922 68.8269043 C-21.32763672 68.6237793 -21.32763672 68.6237793 -23.32763672 67.6237793 C-23.41013672 68.7787793 -23.49263672 69.9337793 -23.57763672 71.1237793 C-24.92805402 82.83356219 -27.33424217 96.17041522 -36.35107422 104.4909668 C-42.15351494 108.99918282 -46.50588554 111.06907843 -53.90966797 110.9597168 C-57.25966547 110.49428903 -59.04833768 109.0550316 -61.32763672 106.6237793 C-60.99763672 104.9737793 -60.66763672 103.3237793 -60.32763672 101.6237793 C-57.85263672 101.1287793 -57.85263672 101.1287793 -55.32763672 100.6237793 C-55.32763672 102.2737793 -55.32763672 103.9237793 -55.32763672 105.6237793 C-53.13248799 106.583095 -53.13248799 106.583095 -50.32763672 106.6237793 C-40.47481958 100.87630263 -37.89589132 87.06989798 -34.18164062 76.97338867 C-32.55282454 72.59226832 -30.95679437 68.52669034 -28.32763672 64.6237793 C-29.07142578 64.36467773 -29.81521484 64.10557617 -30.58154297 63.83862305 C-38.86955915 60.17208957 -43.86126294 51.64801479 -47.32763672 43.6237793 C-49.65812889 34.95548524 -49.65378689 24.0766872 -45.77685547 15.90112305 C-40.22705691 7.18001102 -32.21611633 1.45133511 -22.26513672 -1.1887207 C-14.65314345 -1.67459261 -7.52853916 -1.13680057 0 0 Z " fill="#C3A430" transform="translate(197.32763671875,106.376220703125)"/>
<path d="M0 0 C0.78342773 0.16628906 1.56685547 0.33257812 2.37402344 0.50390625 C30.48863601 6.68294198 55.14240947 20.282535 76 40 C76.82242187 40.75796875 77.64484375 41.5159375 78.4921875 42.296875 C101.8616285 64.57428604 114.11566741 95.99668467 114.99609375 127.953125 C115.34500036 161.16903454 101.78135187 191.23329554 79 215 C78.25492187 215.80824219 77.50984375 216.61648438 76.7421875 217.44921875 C56.54337706 238.68130167 28.38150067 251.97579007 0 258 C-0.75764648 258.16371094 -1.51529297 258.32742188 -2.29589844 258.49609375 C-24.28209117 263.03396892 -48.07652584 262.73718625 -70 258 C-70.78342773 257.83371094 -71.56685547 257.66742188 -72.37402344 257.49609375 C-100.48863601 251.31705802 -125.14240947 237.717465 -146 218 C-146.82242188 217.24203125 -147.64484375 216.4840625 -148.4921875 215.703125 C-171.8616285 193.42571396 -184.11566741 162.00331533 -184.99609375 130.046875 C-185.34500036 96.83096546 -171.78135187 66.76670446 -149 43 C-148.25492188 42.19175781 -147.50984375 41.38351563 -146.7421875 40.55078125 C-126.54337706 19.31869833 -98.38150067 6.02420993 -70 0 C-69.24235352 -0.16371094 -68.48470703 -0.32742187 -67.70410156 -0.49609375 C-45.71790883 -5.03396892 -21.92347416 -4.73718625 0 0 Z M-145 44 C-145.69351563 44.61875 -146.38703125 45.2375 -147.1015625 45.875 C-167.18707489 64.39004023 -179.81599777 93.60495601 -181.12573242 120.59057617 C-182.14777404 154.93697787 -171.56270998 185.80093664 -147.88623047 210.95263672 C-146.59370172 212.30451861 -145.29700386 213.65241097 -144 215 C-143.43152344 215.63164062 -142.86304688 216.26328125 -142.27734375 216.9140625 C-117.45771365 243.70148936 -76.71039093 256.8212941 -41.16015625 258.23828125 C-11.41159419 258.89222413 16.95827063 252.46109577 43 238 C44.03898438 237.44828125 45.07796875 236.8965625 46.1484375 236.328125 C74.50379029 220.69919039 97.16374332 193.69194547 106.5 162.625 C113.53709406 137.59444409 112.65221714 112.47786169 104 88 C103.64164062 86.97132813 103.28328125 85.94265625 102.9140625 84.8828125 C97.44625282 70.57343823 88.30627533 58.18558783 78 47 C77.13761719 46.05511719 76.27523438 45.11023438 75.38671875 44.13671875 C59.87893848 27.89375482 40.05568765 16.47499359 19 9 C17.83210937 8.56042969 16.66421875 8.12085937 15.4609375 7.66796875 C-40.10580928 -11.69265565 -103.15930482 3.75440463 -145 44 Z " fill="#C5A52F" transform="translate(235,71)"/>
<path d="M0 0 C2.20914 3.31371 2.22481553 4.3446021 2.125 8.1875 C2.10695313 9.08855469 2.08890625 9.98960937 2.0703125 10.91796875 C2.04710937 11.60503906 2.02390625 12.29210937 2 13 C1.01 13.33 0.02 13.66 -1 14 C-1 13.34 -1 12.68 -1 12 C-2.74965358 11.94570041 -4.49979787 11.90707177 -6.25 11.875 C-7.22453125 11.85179687 -8.1990625 11.82859375 -9.203125 11.8046875 C-12.06627213 12.00462794 -13.65155238 12.37332298 -16 14 C-16.33 14.99 -16.66 15.98 -17 17 C-19.43276386 18.18519265 -21.28017286 19 -24 19 C-26.61046448 21.84777943 -28.42676569 24.13066838 -29 28 C-28.34 28 -27.68 28 -27 28 C-26.957279 29.66611905 -26.95936168 31.33382885 -27 33 C-27.495 33.495 -27.495 33.495 -28 34 C-28.66868651 39.6169667 -27.00985397 42.44222112 -24 47 C-19.0732928 52.49989752 -12.87726711 54.38750042 -5.6875 54.921875 C-4.8521875 54.96054688 -4.8521875 54.96054688 -4 55 C-4.309375 53.8553125 -4.309375 53.8553125 -4.625 52.6875 C-5 50 -5 50 -3 47 C-0.3203125 46.41796875 -0.3203125 46.41796875 2.875 46.1875 C3.92429687 46.09855469 4.97359375 46.00960937 6.0546875 45.91796875 C9.01501381 46.00041816 10.52149349 46.44943675 13 48 C13 48.99 13 49.98 13 51 C13.66 51 14.32 51 15 51 C14.42655063 53.86724686 14.1385485 54.8614515 12 57 C12.33 57.33 12.66 57.66 13 58 C13.4857159 63.3654663 13.06149392 67.97510856 11 73 C10.01 71.68 9.02 70.36 8 69 C8 69.33 8 69.66 8 70 C8 72.66666667 8 75.33333333 8 78 C6.68 78 5.36 78 4 78 C4.47050781 78.47308594 4.94101562 78.94617188 5.42578125 79.43359375 C9.52163011 83.78384316 11.86320402 87.26319928 13.19921875 93.1171875 C13.86679545 95.19674167 13.86679545 95.19674167 16.08203125 96.2578125 C17.03142578 96.62519531 17.03142578 96.62519531 18 97 C16.90859096 92.63436384 15.85549904 89.47625971 13 86 C11.64977162 81.94931486 11.32158342 78.23057529 12 74 C14.1875 71.375 14.1875 71.375 17 70 C20.42333251 70.15922477 21.5631237 70.5631237 24 73 C25.32 73 26.64 73 28 73 C28 74.32 28 75.64 28 77 C27.34 77 26.68 77 26 77 C26 79.97 26 82.94 26 86 C24.68 85.67 23.36 85.34 22 85 C21.33333333 83.33333333 20.66666667 81.66666667 20 80 C17.95894361 79.11306697 17.95894361 79.11306697 16 79 C16 78.34 16 77.68 16 77 C16.99 77 17.98 77 19 77 C18.67 76.01 18.34 75.02 18 74 C17.01 74.33 16.02 74.66 15 75 C14.67 76.98 14.34 78.96 14 81 C14.99 81 15.98 81 17 81 C20.61463389 87.91495179 21.14211532 91.38589787 20 99 C17.03 99.495 17.03 99.495 14 100 C12.68 98.35 11.36 96.7 10 95 C10 98.3 10 101.6 10 105 C10.99 105.33 11.98 105.66 13 106 C13.495 109.96 13.495 109.96 14 114 C13.01 113.505 13.01 113.505 12 113 C10.7010478 115.497985 9.66558418 117.90770009 8.6875 120.5625 C6.85626343 124.29279671 5.76665585 125.39917126 2 127 C1.01 127 0.02 127 -1 127 C-1.6796875 125.27734375 -1.6796875 125.27734375 -2 123 C-0.8203125 120.81640625 -0.8203125 120.81640625 0.875 118.5625 C3.23796895 115.40271594 4.80830016 113.01291666 5 109 C3.78672943 106.96627508 3.78672943 106.96627508 2 105.1875 C-0.9516528 101.61695225 -0.9516528 101.61695225 -1.1796875 98.70703125 C-0.875 96.5 -0.875 96.5 0 93 C-1.32 93.99 -2.64 94.98 -4 96 C-3.649375 96.9075 -3.29875 97.815 -2.9375 98.75 C-2.03531221 101.87758436 -1.86618493 103.05208081 -3 106 C-3.66 106 -4.32 106 -5 106 C-5.45375 106.474375 -5.9075 106.94875 -6.375 107.4375 C-9.90564051 110.83234664 -14.34645308 110.08949129 -19 110 C-16.70401984 106.31003189 -14.77207256 103.26324354 -11 101 C-10.34 101 -9.68 101 -9 101 C-9 100.34 -9 99.68 -9 99 C-10.485 98.505 -10.485 98.505 -12 98 C-11.34 94.37 -10.68 90.74 -10 87 C-6.535 86.01 -6.535 86.01 -3 85 C-4.80961577 83.37168238 -4.80961577 83.37168238 -7 82 C-10.10301684 82.64657009 -10.10301684 82.64657009 -11 84.9375 C-11.33 85.618125 -11.66 86.29875 -12 87 C-13.485 87.99 -13.485 87.99 -15 89 C-16.20450304 91.55183404 -16.20450304 91.55183404 -17 94 C-18.65 93.67 -20.3 93.34 -22 93 C-22 93.66 -22 94.32 -22 95 C-22.66 95 -23.32 95 -24 95 C-24 94.34 -24 93.68 -24 93 C-24.66 93 -25.32 93 -26 93 C-26 91.35 -26 89.7 -26 88 C-24.515 87.505 -24.515 87.505 -23 87 C-22.290268 85.68908325 -21.6282584 84.35185562 -21 83 C-19.50980997 81.16196721 -17.93296995 79.43252691 -16.33984375 77.68359375 C-14.78521084 75.92781556 -14.78521084 75.92781556 -14 73 C-14.495 72.01 -14.495 72.01 -15 71 C-15.04022391 68.6670134 -15.04320247 66.33293334 -15 64 C-15.66 64 -16.32 64 -17 64 C-17.33 64.66 -17.66 65.32 -18 66 C-18.12117188 65.32453125 -18.24234375 64.6490625 -18.3671875 63.953125 C-18.61855469 62.61507812 -18.61855469 62.61507812 -18.875 61.25 C-19.03742188 60.36828125 -19.19984375 59.4865625 -19.3671875 58.578125 C-20.33758111 54.62466955 -21.43350184 52.55163919 -24.3828125 49.6796875 C-27.23812638 46.75618702 -29.07035737 43.74213152 -30.875 40.125 C-31.1946875 39.53847656 -31.514375 38.95195312 -31.84375 38.34765625 C-34.83030698 32.43946745 -33.69265441 27.55385327 -31.75 21.5 C-29.87831526 16.26819553 -27.81444645 11.66473727 -22.88671875 8.75 C-20.61963376 7.71361829 -18.34999874 6.82916622 -16 6 C-14.948125 5.5875 -13.89625 5.175 -12.8125 4.75 C-9.765663 3.93751013 -7.13949586 3.8505002 -4 4 C-4 3.34 -4 2.68 -4 2 C-2.68 1.34 -1.36 0.68 0 0 Z " fill="#C0A232" transform="translate(297,120)"/>
<path d="M0 0 C0.66 0 1.32 0 2 0 C2 0.66 2 1.32 2 2 C3.2375 2.2475 4.475 2.495 5.75 2.75 C16.60389688 5.20586591 24.29780066 7.36389582 30.6875 16.875 C35.61861598 25.19723044 35.06941334 31.6529333 33.25 40.75 C31.77547227 44.5837721 30.02545839 46.24958328 27 49 C20.26427609 55.7913254 16.12033206 64.43049696 15 74 C16.05304791 77.79536018 18.00982244 79.54913302 21 82 C22.17066497 83.22677527 23.31804581 84.47632172 24.4375 85.75 C24.95183594 86.28109375 25.46617188 86.8121875 25.99609375 87.359375 C27 89 27 89 26.78515625 91.078125 C26 93 26 93 24 95 C24 94.34 24 93.68 24 93 C21.525 93.495 21.525 93.495 19 94 C18.54625 93.05125 18.0925 92.1025 17.625 91.125 C16.19761746 87.99686321 16.19761746 87.99686321 14 86 C13.01 86.495 13.01 86.495 12 87 C11.01 84.69 10.02 82.38 9 80 C8.443125 80.556875 7.88625 81.11375 7.3125 81.6875 C5.66548039 83.33451961 3.94767933 84.91201125 2.1875 86.4375 C-0.32338382 88.78799653 -0.32338382 88.78799653 0.125 91.75 C0.80091898 93.93516519 0.80091898 93.93516519 2 95 C2.50620786 98.54345504 2.68338852 101.01561764 0.58984375 104.03125 C0.02394531 104.7015625 -0.54195312 105.371875 -1.125 106.0625 C-3.76867375 109.14532072 -3.76867375 109.14532072 -3.6875 113.1875 C-2.07660867 116.14241238 -2.07660867 116.14241238 0.625 118.5625 C3 121 3 121 3.375 123.75 C3 126 3 126 2 127 C-0.3125 127.375 -0.3125 127.375 -3 127 C-5.99817654 124.00182346 -7.63231579 120.98907894 -9 117 C-9.66 117 -10.32 117 -11 117 C-11 115.68 -11 114.36 -11 113 C-11.99 113.99 -11.99 113.99 -13 115 C-12.91291331 113.54054712 -12.80473093 112.08234132 -12.6875 110.625 C-12.62949219 109.81289062 -12.57148437 109.00078125 -12.51171875 108.1640625 C-12 106 -12 106 -9 104 C-8.41810734 101.57478506 -8.41810734 101.57478506 -8.3125 98.875 C-8.24675781 97.96492188 -8.18101563 97.05484375 -8.11328125 96.1171875 C-8.07589844 95.41851562 -8.03851563 94.71984375 -8 94 C-8.66 94 -9.32 94 -10 94 C-10.144375 94.804375 -10.28875 95.60875 -10.4375 96.4375 C-11 99 -11 99 -12 100 C-14.4375 100.1875 -14.4375 100.1875 -17 100 C-19 98 -19 98 -19.23046875 95.90625 C-19.21628906 95.1121875 -19.20210938 94.318125 -19.1875 93.5 C-19.17783203 92.30890625 -19.17783203 92.30890625 -19.16796875 91.09375 C-19 89 -19 89 -18 87 C-18 86.01 -18 85.02 -18 84 C-17.34 84 -16.68 84 -16 84 C-16 83.01 -16 82.02 -16 81 C-14.515 80.505 -14.515 80.505 -13 80 C-13.495 77.525 -13.495 77.525 -14 75 C-14.99 74.67 -15.98 74.34 -17 74 C-17 74.99 -17 75.98 -17 77 C-16.34 77 -15.68 77 -15 77 C-15.33 77.99 -15.66 78.98 -16 80 C-17.32 79.67 -18.64 79.34 -20 79 C-20 80.98 -20 82.96 -20 85 C-22.475 85.495 -22.475 85.495 -25 86 C-24.71848084 83.87363187 -24.42446737 81.74891472 -24.125 79.625 C-23.88136719 77.84996094 -23.88136719 77.84996094 -23.6328125 76.0390625 C-23 73 -23 73 -21 71 C-17.14493238 70.57165915 -14.87199635 70.44102798 -11.5625 72.5625 C-9.35679605 76.00339816 -9.46130911 77.95981835 -10 82 C-11.56182136 85.97023748 -13.63785068 89.45677602 -16 93 C-16 93.99 -16 94.98 -16 96 C-15.01 96 -14.02 96 -13 96 C-12.76925781 95.27554688 -12.53851563 94.55109375 -12.30078125 93.8046875 C-10.30777344 87.89656158 -8.49807609 83.37970567 -4 79 C-3.34 79 -2.68 79 -2 79 C-2.33 77.02 -2.66 75.04 -3 73 C-3.33 74.65 -3.66 76.3 -4 78 C-5.485 77.505 -5.485 77.505 -7 77 C-7 75.02 -7 73.04 -7 71 C-7.66 71.99 -8.32 72.98 -9 74 C-12.24766768 70.75233232 -11.86671299 66.447577 -12 62 C-11.79375 61.030625 -11.5875 60.06125 -11.375 59.0625 C-11.25125 58.381875 -11.1275 57.70125 -11 57 C-12.39588754 55.35405861 -12.39588754 55.35405861 -14 54 C-14 53.01 -14 52.02 -14 51 C-13.34 51 -12.68 51 -12 51 C-12 50.01 -12 49.02 -12 48 C-7.83150871 45.91188748 -5.22153548 45.97815782 -0.6875 46.875 C0.38113281 47.07867187 1.44976562 47.28234375 2.55078125 47.4921875 C3.35902344 47.65976563 4.16726562 47.82734375 5 48 C5.33 49.65 5.66 51.3 6 53 C4.35 53.66 2.7 54.32 1 55 C1.185625 55.61875 1.37125 56.2375 1.5625 56.875 C2 59 2 59 1 61 C3.97 61 6.94 61 10 61 C9.01 61.495 9.01 61.495 8 62 C8 62.66 8 63.32 8 64 C9.94122585 63.87341605 9.94122585 63.87341605 12 63 C13.35906735 60.79075972 13.35906735 60.79075972 14.375 58.125 C16.53810948 53.43271635 18.13529087 51.96658454 23 50 C27.57946578 45.68991456 29.08099665 39.82846231 31 34 C30.01 33.67 29.02 33.34 28 33 C28 31.68 28 30.36 28 29 C28.99 29 29.98 29 31 29 C30.43224464 27.70141061 29.84508337 26.41129559 29.25 25.125 C28.92515625 24.40570313 28.6003125 23.68640625 28.265625 22.9453125 C26.26824969 19.87527268 23.64866704 19.24136448 20.3125 18 C18 17 18 17 17 15 C17.33 14.34 17.66 13.68 18 13 C11.45688671 12.12442969 6.23352019 11.6451146 0 14 C-1.54799337 9.35601989 -1.49594333 4.67482292 0 0 Z " fill="#C0A332" transform="translate(102,121)"/>
<path d="M0 0 C2.95409701 1.37154504 5.44008376 2.98863724 8 5 C10.31 3.35 12.62 1.7 15 0 C14.93433838 0.6820752 14.86867676 1.36415039 14.80102539 2.06689453 C12.6339743 26.03778289 12.8615458 50.33846731 12.71389771 74.38702393 C12.69631986 76.83446966 12.67198251 79.28187631 12.64083862 81.72918701 C12.59905891 85.18554047 12.58332191 88.64108222 12.57421875 92.09765625 C12.55675598 93.14084518 12.53929321 94.18403412 12.52130127 95.25883484 C12.40578576 100.83960711 12.40578576 100.83960711 15.02661133 105.55639648 C15.67782959 106.03278564 16.32904785 106.5091748 17 107 C17 107.66 17 108.32 17 109 C10.73 108.67 4.46 108.34 -2 108 C-2 107.01 -2 106.02 -2 105 C-1.51257954 104.52582327 -1.02515907 104.05164654 -0.52296829 103.56310081 C1.39771215 101.59180753 1.37312364 100.70132522 1.36749268 97.99038696 C1.37584641 96.77078026 1.37584641 96.77078026 1.3843689 95.52653503 C1.37515411 94.63815445 1.36593933 93.74977386 1.35644531 92.83447266 C1.35951187 91.42671822 1.35951187 91.42671822 1.36264038 89.99052429 C1.36565359 86.88150685 1.34715191 83.77301712 1.328125 80.6640625 C1.32506764 78.50556571 1.32319134 76.34706695 1.32244873 74.18856812 C1.31784193 69.66079172 1.30340362 65.1331928 1.28125 60.60546875 C1.25300127 54.80258953 1.24204209 48.99985039 1.2375679 43.19690895 C1.23340899 38.73766682 1.22358699 34.27845299 1.21169281 29.81922531 C1.20599608 27.67980551 1.20123541 25.54038301 1.19742584 23.40095901 C1.19054546 20.40869641 1.17690352 17.41654373 1.16113281 14.42431641 C1.16001495 13.53998428 1.15889709 12.65565216 1.15774536 11.74452209 C1.12954005 7.70049303 1.01151299 3.94542994 0 0 Z " fill="#C7A62D" transform="translate(193,117)"/>
<path d="M0 0 C2.1902103 3.28531545 2.30811591 4.83946133 2.6875 8.6875 C3.54342902 14.43050762 5.26512916 17.04654775 9.328125 21.05078125 C11.68997591 23.80443453 12.40263816 26.62682676 13.19921875 30.1171875 C13.86679545 32.19674167 13.86679545 32.19674167 16.08203125 33.2578125 C16.71496094 33.50273437 17.34789062 33.74765625 18 34 C16.90859096 29.63436384 15.85549904 26.47625971 13 23 C11.64977162 18.94931486 11.32158342 15.23057529 12 11 C14.1875 8.375 14.1875 8.375 17 7 C20.42333251 7.15922477 21.5631237 7.5631237 24 10 C25.32 10 26.64 10 28 10 C28 11.32 28 12.64 28 14 C27.34 14 26.68 14 26 14 C26 16.97 26 19.94 26 23 C24.68 22.67 23.36 22.34 22 22 C21.33333333 20.33333333 20.66666667 18.66666667 20 17 C17.95894361 16.11306697 17.95894361 16.11306697 16 16 C16 15.34 16 14.68 16 14 C16.99 14 17.98 14 19 14 C18.505 12.515 18.505 12.515 18 11 C17.01 11.33 16.02 11.66 15 12 C14.67 13.98 14.34 15.96 14 18 C14.99 18 15.98 18 17 18 C20.61463389 24.91495179 21.14211532 28.38589787 20 36 C17.03 36.495 17.03 36.495 14 37 C12.68 35.35 11.36 33.7 10 32 C10 35.3 10 38.6 10 42 C11.485 42.495 11.485 42.495 13 43 C13.495 46.96 13.495 46.96 14 51 C13.01 50.505 13.01 50.505 12 50 C10.7010478 52.497985 9.66558418 54.90770009 8.6875 57.5625 C6.85626343 61.29279671 5.76665585 62.39917126 2 64 C1.01 64 0.02 64 -1 64 C-1.6796875 62.27734375 -1.6796875 62.27734375 -2 60 C-0.8203125 57.81640625 -0.8203125 57.81640625 0.875 55.5625 C3.23796895 52.40271594 4.80830016 50.01291666 5 46 C3.78672943 43.96627508 3.78672943 43.96627508 2 42.1875 C-0.9516528 38.61695225 -0.9516528 38.61695225 -1.1796875 35.70703125 C-0.875 33.5 -0.875 33.5 0 30 C-1.32 30.99 -2.64 31.98 -4 33 C-3.649375 33.9075 -3.29875 34.815 -2.9375 35.75 C-2.03531221 38.87758436 -1.86618493 40.05208081 -3 43 C-3.66 43 -4.32 43 -5 43 C-5.45375 43.474375 -5.9075 43.94875 -6.375 44.4375 C-9.90564051 47.83234664 -14.34645308 47.08949129 -19 47 C-16.70401984 43.31003189 -14.77207256 40.26324354 -11 38 C-10.34 38 -9.68 38 -9 38 C-9 37.34 -9 36.68 -9 36 C-9.99 35.67 -10.98 35.34 -12 35 C-11.34 31.37 -10.68 27.74 -10 24 C-7.69 23.34 -5.38 22.68 -3 22 C-3.99 20.68 -4.98 19.36 -6 18 C-3 16 -3 16 0 16 C-0.33 15.34 -0.66 14.68 -1 14 C-0.91161539 11.62216895 -0.75653579 9.24654854 -0.5625 6.875 C-0.46066406 5.59367188 -0.35882813 4.31234375 -0.25390625 2.9921875 C-0.17011719 2.00476563 -0.08632813 1.01734375 0 0 Z " fill="#C2A430" transform="translate(297,183)"/>
<path d="M0 0 C0.66 0 1.32 0 2 0 C2 0.66 2 1.32 2 2 C3.2375 2.2475 4.475 2.495 5.75 2.75 C16.60389688 5.20586591 24.29780066 7.36389582 30.6875 16.875 C35.61861598 25.19723044 35.06941334 31.6529333 33.25 40.75 C31.59975121 45.04064686 28.9712792 47.27845159 25.55078125 50.265625 C19.45230605 56.3480937 17.53958989 64.99398791 15 73 C11.63251488 71.48052501 10.39159663 70.47899158 9 67 C8.34 67 7.68 67 7 67 C7.33 68.32 7.66 69.64 8 71 C6.5 69.625 6.5 69.625 5 68 C5 67.34 5 66.68 5 66 C4.34 66 3.68 66 3 66 C3.99 69.465 3.99 69.465 5 73 C3.515 72.505 3.515 72.505 2 72 C1.505 69.03 1.505 69.03 1 66 C0.34 67.65 -0.32 69.3 -1 71 C-1.66 71 -2.32 71 -3 71 C-3.33 73.31 -3.66 75.62 -4 78 C-4.99 77.67 -5.98 77.34 -7 77 C-7 75.02 -7 73.04 -7 71 C-7.66 71.99 -8.32 72.98 -9 74 C-12.24766768 70.75233232 -11.86671299 66.447577 -12 62 C-11.79375 61.030625 -11.5875 60.06125 -11.375 59.0625 C-11.25125 58.381875 -11.1275 57.70125 -11 57 C-12.39588754 55.35405861 -12.39588754 55.35405861 -14 54 C-14 53.01 -14 52.02 -14 51 C-13.34 51 -12.68 51 -12 51 C-12 50.01 -12 49.02 -12 48 C-7.83150871 45.91188748 -5.22153548 45.97815782 -0.6875 46.875 C0.38113281 47.07867187 1.44976562 47.28234375 2.55078125 47.4921875 C3.35902344 47.65976563 4.16726562 47.82734375 5 48 C5.33 49.65 5.66 51.3 6 53 C4.35 53.66 2.7 54.32 1 55 C1.185625 55.61875 1.37125 56.2375 1.5625 56.875 C2 59 2 59 1 61 C3.97 61 6.94 61 10 61 C9.01 61.495 9.01 61.495 8 62 C8 62.66 8 63.32 8 64 C9.94122585 63.87341605 9.94122585 63.87341605 12 63 C13.35906735 60.79075972 13.35906735 60.79075972 14.375 58.125 C16.53810948 53.43271635 18.13529087 51.96658454 23 50 C27.57946578 45.68991456 29.08099665 39.82846231 31 34 C30.01 33.67 29.02 33.34 28 33 C28 31.68 28 30.36 28 29 C28.99 29 29.98 29 31 29 C30.43224464 27.70141061 29.84508337 26.41129559 29.25 25.125 C28.92515625 24.40570313 28.6003125 23.68640625 28.265625 22.9453125 C26.26824969 19.87527268 23.64866704 19.24136448 20.3125 18 C18 17 18 17 17 15 C17.33 14.34 17.66 13.68 18 13 C11.45688671 12.12442969 6.23352019 11.6451146 0 14 C-1.54799337 9.35601989 -1.49594333 4.67482292 0 0 Z " fill="#B59C3A" transform="translate(102,121)"/>
<path d="M0 0 C4.42393767 2.34208465 6.82946215 4.51463999 9 9 C9.43359375 12.375 9.43359375 12.375 9.4375 16 C9.46650391 17.794375 9.46650391 17.794375 9.49609375 19.625 C8.91632293 23.56926763 7.77114903 25.19272798 5 28 C1.76530695 29.61734652 -1.50340198 29.5784335 -5 29 C-9.31868255 26.72750547 -11.54884889 23.58983995 -13 19 C-14.25795177 8.30078912 -14.25795177 8.30078912 -11.94921875 4.078125 C-8.2493563 0.3673485 -5.1086738 -0.49121864 0 0 Z " fill="#274BA3" transform="translate(165,264)"/>
<path d="M0 0 C2.7225 -0.0825 5.445 -0.165 8.25 -0.25 C9.10110352 -0.28641602 9.95220703 -0.32283203 10.82910156 -0.36035156 C14.54190103 -0.41487396 16.42261765 -0.41331252 19.515625 1.80078125 C21.70016056 5.03734315 21.53598889 7.18107913 21 11 C19 13.9375 19 13.9375 17 16 C20.18503517 22.71561661 23.83605027 28.27087629 31 31 C31 31.33 31 31.66 31 32 C23.04046243 32.78034682 23.04046243 32.78034682 19.25 29.9375 C18.04891487 28.36941663 16.85968103 26.7890775 15.765625 25.14453125 C15.13914063 24.20673828 15.13914063 24.20673828 14.5 23.25 C14.1390625 22.65703125 13.778125 22.0640625 13.40625 21.453125 C11.47079862 19.45315858 9.70187864 19.34223796 7 19 C7.08693141 20.79258558 7.19510504 22.58415144 7.3125 24.375 C7.39951172 25.87160156 7.39951172 25.87160156 7.48828125 27.3984375 C7.65714844 28.25695312 7.82601562 29.11546875 8 30 C8.99 30.66 9.98 31.32 11 32 C6.71 32 2.42 32 -2 32 C-1.01 31.67 -0.02 31.34 1 31 C0.67 20.77 0.34 10.54 0 0 Z " fill="#C1A332" transform="translate(116,263)"/>
<path d="M0 0 C0.33 1.32 0.66 2.64 1 4 C1.66 4 2.32 4 3 4 C2.42655063 6.86724686 2.1385485 7.8614515 0 10 C0.33 10.33 0.66 10.66 1 11 C1.4857159 16.3654663 1.06149392 20.97510856 -1 26 C-1.99 24.68 -2.98 23.36 -4 22 C-4 22.33 -4 22.66 -4 23 C-4 25.66666667 -4 28.33333333 -4 31 C-5.65 30.67 -7.3 30.34 -9 30 C-9.66 26.37 -10.32 22.74 -11 19 C-11.33 22.63 -11.66 26.26 -12 30 C-12.33 30 -12.66 30 -13 30 C-13.06058594 29.28972656 -13.12117188 28.57945312 -13.18359375 27.84765625 C-13.26738281 26.92855469 -13.35117187 26.00945312 -13.4375 25.0625 C-13.51871094 24.14597656 -13.59992188 23.22945312 -13.68359375 22.28515625 C-13.76044976 20.03840268 -13.76044976 20.03840268 -15 19 C-15.66 20.32 -16.32 21.64 -17 23 C-17.33 22.01 -17.66 21.02 -18 20 C-18.99 19.67 -19.98 19.34 -21 19 C-19.35 18.67 -17.7 18.34 -16 18 C-16 17.34 -16 16.68 -16 16 C-17.98 16.33 -19.96 16.66 -22 17 C-25.47311819 13.20127698 -26 12.44328904 -26 7 C-22.7 7.33 -19.4 7.66 -16 8 C-16.20625 7.236875 -16.4125 6.47375 -16.625 5.6875 C-17 3 -17 3 -15 0 C-10.04861455 -1.38638793 -4.97482491 -1.14803652 0 0 Z " fill="#B39B3C" transform="translate(309,167)"/>
<path d="M0 0 C4.19677192 2.51806315 6.90761912 5.44023823 9.125 9.875 C9.95087481 16.22243779 9.36305312 20.92695655 5.625 26.18359375 C1.62665146 30.69214822 -2.69373849 32.72958257 -8.625 33.125 C-13.49826674 33.03558226 -17.71021859 31.91951578 -21.3515625 28.48046875 C-25.418099 23.78373799 -27.39163419 20.35042007 -27.1796875 14.02734375 C-26.50869768 9.28740287 -24.64932692 5.59922828 -21.21484375 2.26171875 C-14.92310347 -2.32466277 -7.24690721 -2.62088583 0 0 Z M-17.875 3.875 C-21.12847541 8.75521311 -20.32496119 14.16611734 -19.875 19.875 C-18.30306993 24.5907902 -16.20217512 27.37485437 -11.875 29.875 C-7.49705613 30.74526065 -4.72103918 30.41502501 -0.9375 28 C3.2508595 23.68472051 2.4534922 19.07804746 2.40625 13.30859375 C2.03280383 8.74943844 1.32941774 7.07941774 -1.875 3.875 C-4.65977587 1.67649274 -6.35267798 0.94029025 -9.875 0.5 C-13.29922442 0.92802805 -15.12723913 1.81417934 -17.875 3.875 Z " fill="#BEA134" transform="translate(171.875,263.125)"/>
<path d="M0 0 C0.66 0 1.32 0 2 0 C2.52956299 1.24873901 2.52956299 1.24873901 3.06982422 2.52270508 C4.38314376 5.61554886 5.69918815 8.70720321 7.01708984 11.7980957 C7.5865441 13.13519504 8.15491346 14.47275697 8.72216797 15.81079102 C9.53847924 17.73577023 10.35869848 19.65904322 11.1796875 21.58203125 C11.67194824 22.73936768 12.16420898 23.8967041 12.67138672 25.08911133 C14.36746765 28.80509313 15.56841153 30.71227435 19 33 C15.04 33 11.08 33 7 33 C6.7834375 31.39125 6.7834375 31.39125 6.5625 29.75 C6.05134338 25.93354093 6.05134338 25.93354093 5 22 C0.05 22.495 0.05 22.495 -5 23 C-5.99 25.97 -6.98 28.94 -8 32 C-7.01 32.33 -6.02 32.66 -5 33 C-8.96 33 -12.92 33 -17 33 C-14 31 -14 31 -12 31 C-11.75672974 30.11078857 -11.75672974 30.11078857 -11.50854492 29.20361328 C-9.60080695 22.51644169 -7.11239188 16.23392511 -4.3125 9.875 C-3.89677734 8.91851562 -3.48105469 7.96203125 -3.05273438 6.9765625 C-2.04015854 4.64880196 -1.02253838 2.32339703 0 0 Z " fill="#BFA233" transform="translate(225,262)"/>
<path d="M0 0 C0.66 0 1.32 0 2 0 C2 0.66 2 1.32 2 2 C3.2375 2.2475 4.475 2.495 5.75 2.75 C16.60389688 5.20586591 24.29780066 7.36389582 30.6875 16.875 C34.65037092 23.56312601 35.72450649 29.44501919 34 37 C32.4375 40.5625 32.4375 40.5625 31 43 C30.67 43 30.34 43 30 43 C30.33 40.03 30.66 37.06 31 34 C29.515 33.505 29.515 33.505 28 33 C28 31.68 28 30.36 28 29 C28.99 29 29.98 29 31 29 C30.43224464 27.70141061 29.84508337 26.41129559 29.25 25.125 C28.92515625 24.40570313 28.6003125 23.68640625 28.265625 22.9453125 C26.26824969 19.87527268 23.64866704 19.24136448 20.3125 18 C18 17 18 17 17 15 C17.33 14.34 17.66 13.68 18 13 C11.45688671 12.12442969 6.23352019 11.6451146 0 14 C-1.54799337 9.35601989 -1.49594333 4.67482292 0 0 Z " fill="#BA9F36" transform="translate(102,121)"/>
<path d="M0 0 C1.32056546 17.3298821 1.32056546 17.3298821 0.15625 25.99609375 C-0.17878649 28.07191883 -0.17878649 28.07191883 1 30 C0.34 30.33 -0.32 30.66 -1 31 C-2.13350534 33.01669827 -2.13350534 33.01669827 -3 35 C-4.98 34.67 -6.96 34.34 -9 34 C-10.59162079 28.42932723 -11.20674944 23.78898419 -11 18 C-11.66 17.67 -12.32 17.34 -13 17 C-11.86206817 11.34957987 -7.11666743 0 0 0 Z " fill="#264AA4" transform="translate(133,167)"/>
<path d="M0 0 C1.60379341 -0.05416188 3.20811406 -0.09286638 4.8125 -0.125 C5.70582031 -0.14820313 6.59914062 -0.17140625 7.51953125 -0.1953125 C10 0 10 0 13 2 C13.30754089 5.53672026 13.04293785 8.61045199 12 12 C14.475 13.98 14.475 13.98 17 16 C17.40992188 14.92878906 17.81984375 13.85757813 18.2421875 12.75390625 C18.78609408 11.35662899 19.33038483 9.95950123 19.875 8.5625 C20.14441406 7.85544922 20.41382813 7.14839844 20.69140625 6.41992188 C22.7734375 1.11328125 22.7734375 1.11328125 25 0 C25.48210937 1.12019531 25.96421875 2.24039063 26.4609375 3.39453125 C27.0988047 4.86725405 27.73683401 6.33990665 28.375 7.8125 C28.69210938 8.55048828 29.00921875 9.28847656 29.3359375 10.04882812 C29.8 11.11713867 29.8 11.11713867 30.2734375 12.20703125 C30.55622559 12.8616333 30.83901367 13.51623535 31.13037109 14.19067383 C32.07472913 16.26322799 32.07472913 16.26322799 34 19 C32.02 19 30.04 19 28 19 C27.34 17.02 26.68 15.04 26 13 C23.525 12.505 23.525 12.505 21 12 C21 14.31 21 16.62 21 19 C17.875 19.4375 17.875 19.4375 14 19 C12.16558371 17.3515614 10.7976815 15.62879871 9.359375 13.62890625 C7.99776319 11.70716931 7.99776319 11.70716931 5 11 C5.33 13.31 5.66 15.62 6 18 C4.68 18 3.36 18 2 18 C1.93941406 16.86820313 1.87882812 15.73640625 1.81640625 14.5703125 C1.73200083 13.08852855 1.64735283 11.6067584 1.5625 10.125 C1.50352539 9.00544922 1.50352539 9.00544922 1.44335938 7.86328125 C1.28426376 3.80013136 1.28426376 3.80013136 0 0 Z " fill="#AC9741" transform="translate(125,233)"/>
<path d="M0 0 C0.66 0.33 1.32 0.66 2 1 C2 3.31 2 5.62 2 8 C1.34 8 0.68 8 0 8 C-0.33 6.68 -0.66 5.36 -1 4 C-3.3260857 3.61936779 -5.66055264 3.28730055 -8 3 C-9.23018708 4.03970356 -9.23018708 4.03970356 -9.40625 6.26953125 C-8.81019854 10.27568483 -6.65980223 11.27376219 -3.5 13.6875 C-0.60583379 16.08082275 1.69069117 18.06807382 2.90625 21.73046875 C3.06389943 26.17749633 2.69431849 28.25086689 -0.375 31.5625 C-4.65688747 33.90734314 -8.10426172 34.57197734 -13 34 C-13.99 33.34 -14.98 32.68 -16 32 C-16.40843923 29.28796348 -16.13336867 26.7562858 -16 24 C-15.34 24 -14.68 24 -14 24 C-13.67 25.98 -13.34 27.96 -13 30 C-9.7 30 -6.4 30 -3 30 C-2.59188587 27.19471209 -2.59188587 27.19471209 -3 24 C-5.08808391 21.47777514 -5.08808391 21.47777514 -7.875 19.375 C-12.22381977 15.84390702 -14.55105108 13.63757491 -15.5 8.0625 C-14.92506923 4.54104905 -13.78569444 3.03582736 -10.92578125 0.90625 C-7.4124689 -0.74707346 -3.78351594 -0.52969223 0 0 Z " fill="#C2A431" transform="translate(287,262)"/>
<path d="M0 0 C2.97 0 5.94 0 9 0 C11.64 4.62 14.28 9.24 17 14 C17.99 12.246875 18.98 10.49375 20 8.6875 C20.556875 7.70136719 21.11375 6.71523438 21.6875 5.69921875 C23.21864753 3.05057529 23.21864753 3.05057529 23 0 C25.64 0 28.28 0 31 0 C30.29875 0.78375 29.5975 1.5675 28.875 2.375 C27.90311054 3.57245693 26.94632945 4.78224272 26 6 C25.44957031 6.70382812 24.89914063 7.40765625 24.33203125 8.1328125 C19.56730422 14.99130318 18.56947453 21.74952754 20 30 C20.99 30.66 21.98 31.32 23 32 C18.38 32 13.76 32 9 32 C9.99 31.34 10.98 30.68 12 30 C14.01838841 21.81660208 11.25684328 15.58281422 7.19799805 8.72167969 C5.12648437 5.40993628 2.87367845 2.6406775 0 0 Z " fill="#C2A431" transform="translate(182,263)"/>
<path d="M0 0 C2.64 0 5.28 0 8 0 C8 9.24 8 18.48 8 28 C11.3 28.33 14.6 28.66 18 29 C18.66 27.68 19.32 26.36 20 25 C20.04254356 26.99954746 20.04080783 29.00041636 20 31 C19 32 19 32 16.95874023 32.11352539 C15.64691772 32.10567017 15.64691772 32.10567017 14.30859375 32.09765625 C13.36435547 32.09443359 12.42011719 32.09121094 11.44726562 32.08789062 C10.45404297 32.07951172 9.46082031 32.07113281 8.4375 32.0625 C7.44041016 32.05798828 6.44332031 32.05347656 5.41601562 32.04882812 C2.94395151 32.03700007 0.47200482 32.02051849 -2 32 C-1.34 31.34 -0.68 30.68 0 30 C0.27904629 26.88961056 0.27904629 26.88961056 0.1953125 23.2421875 C0.19106766 22.24761032 0.19106766 22.24761032 0.18673706 21.23294067 C0.17553435 19.11344417 0.15043051 16.99436896 0.125 14.875 C0.11497028 13.43880818 0.10584441 12.00260975 0.09765625 10.56640625 C0.075595 7.04413372 0.04106494 3.52210797 0 0 Z " fill="#C2A431" transform="translate(247,263)"/>
<path d="M0 0 C2.3125 0.875 2.3125 0.875 4.3125 2.875 C5.6325 2.875 6.9525 2.875 8.3125 2.875 C8.3125 4.195 8.3125 5.515 8.3125 6.875 C7.6525 6.875 6.9925 6.875 6.3125 6.875 C6.3125 9.845 6.3125 12.815 6.3125 15.875 C4.9925 15.545 3.6725 15.215 2.3125 14.875 C1.64583333 13.20833333 0.97916667 11.54166667 0.3125 9.875 C-1.72855639 8.98806697 -1.72855639 8.98806697 -3.6875 8.875 C-3.6875 8.215 -3.6875 7.555 -3.6875 6.875 C-2.6975 6.875 -1.7075 6.875 -0.6875 6.875 C-1.0175 5.885 -1.3475 4.895 -1.6875 3.875 C-2.6775 4.205 -3.6675 4.535 -4.6875 4.875 C-5.0175 6.855 -5.3475 8.835 -5.6875 10.875 C-4.6975 10.875 -3.7075 10.875 -2.6875 10.875 C0.92713389 17.78995179 1.45461532 21.26089787 0.3125 28.875 C-1.6675 29.205 -3.6475 29.535 -5.6875 29.875 C-7.25 28.0625 -7.25 28.0625 -8.6875 25.875 C-8.1925 24.39 -8.1925 24.39 -7.6875 22.875 C-7.254375 23.349375 -6.82125 23.82375 -6.375 24.3125 C-4.66440387 26.11186957 -4.66440387 26.11186957 -1.6875 26.875 C-2.77890904 22.50936384 -3.83200096 19.35125971 -6.6875 15.875 C-8.03772838 11.82431486 -8.36591658 8.10557529 -7.6875 3.875 C-5.16905081 0.85286098 -3.96748071 -0.18453399 0 0 Z " fill="#BEA134" transform="translate(316.6875,190.125)"/>
<path d="M0 0 C3.625 0.375 3.625 0.375 6.0625 1.9375 C8.26820395 5.37839816 8.16369089 7.33481835 7.625 11.375 C6.06317864 15.34523748 3.98714932 18.83177602 1.625 22.375 C1.625 23.365 1.625 24.355 1.625 25.375 C2.615 25.375 3.605 25.375 4.625 25.375 C5.285 23.725 5.945 22.075 6.625 20.375 C7.615 21.365 8.605 22.355 9.625 23.375 C8.965 23.375 8.305 23.375 7.625 23.375 C7.480625 24.179375 7.33625 24.98375 7.1875 25.8125 C6.625 28.375 6.625 28.375 5.625 29.375 C3.1875 29.5625 3.1875 29.5625 0.625 29.375 C-1.375 27.375 -1.375 27.375 -1.60546875 25.28125 C-1.59128906 24.4871875 -1.57710938 23.693125 -1.5625 22.875 C-1.55283203 21.68390625 -1.55283203 21.68390625 -1.54296875 20.46875 C-1.375 18.375 -1.375 18.375 -0.375 16.375 C-0.375 15.385 -0.375 14.395 -0.375 13.375 C0.285 13.375 0.945 13.375 1.625 13.375 C1.625 12.385 1.625 11.395 1.625 10.375 C2.615 10.045 3.605 9.715 4.625 9.375 C4.295 7.725 3.965 6.075 3.625 4.375 C2.635 4.045 1.645 3.715 0.625 3.375 C0.625 4.365 0.625 5.355 0.625 6.375 C1.285 6.375 1.945 6.375 2.625 6.375 C2.295 7.365 1.965 8.355 1.625 9.375 C0.305 9.045 -1.015 8.715 -2.375 8.375 C-2.375 10.355 -2.375 12.335 -2.375 14.375 C-4.025 14.705 -5.675 15.035 -7.375 15.375 C-7.09348084 13.24863187 -6.79946737 11.12391472 -6.5 9 C-6.33757812 7.81664062 -6.17515625 6.63328125 -6.0078125 5.4140625 C-5.11310117 1.11723897 -4.37713439 0.48634827 0 0 Z " fill="#C0A332" transform="translate(84.375,191.625)"/>
<path d="M0 0 C0.33 3.96 0.66 7.92 1 12 C0.01 12.495 0.01 12.495 -1 13 C-0.071875 13.53625 0.85625 14.0725 1.8125 14.625 C5.24016479 17.17894631 6.4037685 19.09810078 8 23 C5.625 23.625 5.625 23.625 3 24 C2.34 23.34 1.68 22.68 1 22 C0.34 22.33 -0.32 22.66 -1 23 C-1.33 22.34 -1.66 21.68 -2 21 C-2.99 21 -3.98 21 -5 21 C-6.6875 19.875 -6.6875 19.875 -8 18 C-8.1875 14.8125 -8.1875 14.8125 -8 12 C-7.34 12 -6.68 12 -6 12 C-6.39803561 9.11424181 -6.79009069 8.17810487 -9.0625 6.25 C-9.701875 5.8375 -10.34125 5.425 -11 5 C-8.45499142 -0.63537615 -5.97208347 -0.11059414 0 0 Z " fill="#C2A431" transform="translate(114,208)"/>
<path d="M0 0 C0.66 0 1.32 0 2 0 C2 0.66 2 1.32 2 2 C3.27875 2.2475 4.5575 2.495 5.875 2.75 C11.07232035 3.91320979 16.32832322 5.39535481 21 8 C22 11 22 11 21 14 C20.45472656 13.84402344 19.90945312 13.68804687 19.34765625 13.52734375 C12.5380197 11.76964269 6.69740636 11.76753121 0 14 C-1.54799337 9.35601989 -1.49594333 4.67482292 0 0 Z " fill="#C4A52F" transform="translate(102,121)"/>
<path d="M0 0 C2.0625 0.4375 2.0625 0.4375 4 1 C4 1.99 4 2.98 4 4 C3.67 4.33 3.34 4.66 3 5 C4.32 5 5.64 5 7 5 C6.67 5.99 6.34 6.98 6 8 C5.93334624 9.39439664 5.91461801 10.79169875 5.9375 12.1875 C5.958125 13.445625 5.97875 14.70375 6 16 C5.34 15.01 4.68 14.02 4 13 C3.67 16.63 3.34 20.26 3 24 C2.67 24 2.34 24 2 24 C1.93941406 23.28972656 1.87882812 22.57945312 1.81640625 21.84765625 C1.73261719 20.92855469 1.64882813 20.00945312 1.5625 19.0625 C1.48128906 18.14597656 1.40007812 17.22945312 1.31640625 16.28515625 C1.23955024 14.03840268 1.23955024 14.03840268 0 13 C-0.66 14.32 -1.32 15.64 -2 17 C-2.33 16.01 -2.66 15.02 -3 14 C-3.99 13.67 -4.98 13.34 -6 13 C-4.35 12.67 -2.7 12.34 -1 12 C-1 11.34 -1 10.68 -1 10 C-2.98 10.33 -4.96 10.66 -7 11 C-10.96923077 6.65865385 -10.96923077 6.65865385 -11.125 3.32421875 C-11.063125 2.17373047 -11.063125 2.17373047 -11 1 C-10.28972656 1.01160156 -9.57945312 1.02320313 -8.84765625 1.03515625 C-7.92855469 1.04417969 -7.00945312 1.05320313 -6.0625 1.0625 C-4.68771484 1.07990234 -4.68771484 1.07990234 -3.28515625 1.09765625 C-1.03406673 1.25949049 -1.03406673 1.25949049 0 0 Z " fill="#8B8459" transform="translate(294,173)"/>
<path d="M0 0 C0.99 0.33 1.98 0.66 3 1 C3 4 3 4 0.875 6.25 C-2 9 -2 9 -3.45703125 10.28125 C-9.56096826 16.33687088 -11.46604883 25.01176386 -14 33 C-17.36748512 31.48052501 -18.60840337 30.47899158 -20 27 C-20.66 27 -21.32 27 -22 27 C-21.67 28.32 -21.34 29.64 -21 31 C-22.5 29.625 -22.5 29.625 -24 28 C-24 27.34 -24 26.68 -24 26 C-24.66 26 -25.32 26 -26 26 C-25.34 28.31 -24.68 30.62 -24 33 C-24.99 32.67 -25.98 32.34 -27 32 C-27.33 28.7 -27.66 25.4 -28 22 C-27.2575 22.309375 -26.515 22.61875 -25.75 22.9375 C-23.49307824 23.8094925 -21.3549847 24.47667007 -19 25 C-16.87526951 22.45032341 -15.51343892 19.94998885 -14.1875 16.9375 C-12.22435675 12.86078108 -10.16025446 11.82011133 -6 10 C-3.07371374 6.91114228 -1.37674022 4.01549231 0 0 Z " fill="#B99E37" transform="translate(131,161)"/>
<path d="M0 0 C2.20914 3.31371 2.22481553 4.3446021 2.125 8.1875 C2.10695313 9.08855469 2.08890625 9.98960937 2.0703125 10.91796875 C2.04710937 11.60503906 2.02390625 12.29210937 2 13 C1.01 13.33 0.02 13.66 -1 14 C-1 13.34 -1 12.68 -1 12 C-7.11090483 11.90054585 -12.97403427 11.9287172 -19 13 C-19.66 11.35 -20.32 9.7 -21 8 C-9.47835991 3.40774487 -9.47835991 3.40774487 -4 4 C-4 3.34 -4 2.68 -4 2 C-2.68 1.34 -1.36 0.68 0 0 Z " fill="#C7A72D" transform="translate(297,120)"/>
<path d="M0 0 C0.33 1.32 0.66 2.64 1 4 C-0.32 4.33 -1.64 4.66 -3 5 C-2.67 5.99 -2.34 6.98 -2 8 C-5.64270255 10.46418114 -8.58494051 11.71206134 -13 12 C-13.99 11.34 -14.98 10.68 -16 10 C-14.35 10 -12.7 10 -11 10 C-11 9.01 -11 8.02 -11 7 C-12.65 7 -14.3 7 -16 7 C-16.625 5.1875 -16.625 5.1875 -17 3 C-15 0 -15 0 -13.046875 -0.546875 C-8.49245046 -0.94964724 -4.50763964 -1.04022453 0 0 Z " fill="#B0993E" transform="translate(309,167)"/>
<path d="M0 0 C3.875 3.75 3.875 3.75 5 6 C5.99 6.33 6.98 6.66 8 7 C7.67 7.33 7.34 7.66 7 8 C6.19545794 15.34918227 7.9215938 19.88239071 12 26 C12.125 28.6875 12.125 28.6875 12 31 C10.1875 30.8125 10.1875 30.8125 8 30 C5.85145476 27.19036391 4.99047485 24.95896857 4.1875 21.5 C2.96559892 17.89860735 2.68806852 17.51422311 -0.1875 15.5 C-1.115625 14.675 -2.04375 13.85 -3 13 C-2.875 9.1875 -2.875 9.1875 -2 6 C-1.67 6 -1.34 6 -1 6 C-1 7.98 -1 9.96 -1 12 C-0.01 12 0.98 12 2 12 C1.33735914 5.93735778 1.33735914 5.93735778 0 0 Z " fill="#385596" transform="translate(303,186)"/>
<path d="M0 0 C4.18185421 3.52587708 8.19095875 7.07553326 12 11 C12.33 7.7 12.66 4.4 13 1 C13.66 1 14.32 1 15 1 C15 6.94 15 12.88 15 19 C10.81814579 15.47412292 6.80904125 11.92446674 3 8 C2.67 11.3 2.34 14.6 2 18 C1.01 17.67 0.02 17.34 -1 17 C-0.67 11.39 -0.34 5.78 0 0 Z " fill="#B69D3A" transform="translate(257,233)"/>
<path d="M0 0 C0.33 0.66 0.66 1.32 1 2 C0.67 2.66 0.34 3.32 0 4 C-0.039992 5.99960012 -0.04346799 8.00047242 0 10 C0.66 10.33 1.32 10.66 2 11 C2.33 8.69 2.66 6.38 3 4 C3.33 4 3.66 4 4 4 C4.24211821 6.85699482 4.43044455 9.19686108 4 12 C1.6875 14.5625 1.6875 14.5625 -1 17 C-2.66881935 20.42168849 -2.66881935 20.42168849 -4 24 C-4.98537521 26.0072458 -5.98063057 28.00980253 -7 30 C-8.32 29.67 -9.64 29.34 -11 29 C-10.61718573 25.74607873 -10.03485048 24.04721678 -8.0625 21.375 C-5.26078341 16.79037286 -4.71218256 12.26640264 -4 7 C-3.34 7 -2.68 7 -2 7 C-1.855625 6.030625 -1.71125 5.06125 -1.5625 4.0625 C-1 1 -1 1 0 0 Z " fill="#32519B" transform="translate(96,188)"/>
<path d="M0 0 C3.375 0.3125 3.375 0.3125 7 1 C9.45811625 4.68717438 9.31118164 6.64345704 9 11 C8.01 12.485 8.01 12.485 7 14 C4.69 14 2.38 14 0 14 C0 9.38 0 4.76 0 0 Z " fill="#294CA1" transform="translate(123,265)"/>
<path d="M0 0 C0.99 0 1.98 0 3 0 C3 2.31 3 4.62 3 7 C5.97 7 8.94 7 12 7 C12 4.69 12 2.38 12 0 C12.99 0 13.98 0 15 0 C15.33 5.61 15.66 11.22 16 17 C14.68 17 13.36 17 12 17 C12 14.03 12 11.06 12 8 C9.03 8 6.06 8 3 8 C3 10.97 3 13.94 3 17 C2.01 17 1.02 17 0 17 C0 11.39 0 5.78 0 0 Z " fill="#CAA82B" transform="translate(218,234)"/>
<path d="M0 0 C3.25222904 1.62611452 3.77993049 5.12550795 5 8.375 C7.09026626 13.88237579 7.09026626 13.88237579 10 19 C8.02 19 6.04 19 4 19 C3.67 16.69 3.34 14.38 3 12 C1.02 12 -0.96 12 -3 12 C-3.33 13.98 -3.66 15.96 -4 18 C-4.99 17.67 -5.98 17.34 -7 17 C-4.69 11.39 -2.38 5.78 0 0 Z " fill="#AC9741" transform="translate(175,233)"/>
<path d="M0 0 C1.32 0 2.64 0 4 0 C4 0.66 4 1.32 4 2 C7.3 1.67 10.6 1.34 14 1 C13.01 3.97 12.02 6.94 11 10 C9.35 10.33 7.7 10.66 6 11 C6 10.34 6 9.68 6 9 C3.69 8.67 1.38 8.34 -1 8 C-1.625 5.125 -1.625 5.125 -2 2 C-1.34 1.34 -0.68 0.68 0 0 Z " fill="#908756" transform="translate(104,174)"/>
<path d="M0 0 C0.66 0 1.32 0 2 0 C4.31 5.94 6.62 11.88 9 18 C7.68 18 6.36 18 5 18 C4.34 16.02 3.68 14.04 3 12 C0.54775306 12.10613836 0.54775306 12.10613836 -2 13 C-3.37466625 15.47636012 -3.37466625 15.47636012 -4 18 C-4.99 17.67 -5.98 17.34 -7 17 C-4.69 11.39 -2.38 5.78 0 0 Z " fill="#BFA233" transform="translate(244,233)"/>
<path d="M0 0 C0.33 0 0.66 0 1 0 C1.6119424 7.34330885 -0.99096184 11.98644277 -5 18 C-5 18.99 -5 19.98 -5 21 C-4.01 21 -3.02 21 -2 21 C-1.34 19.35 -0.68 17.7 0 16 C0.99 16.99 1.98 17.98 3 19 C2.34 19 1.68 19 1 19 C0.855625 19.804375 0.71125 20.60875 0.5625 21.4375 C0 24 0 24 -1 25 C-3.4375 25.1875 -3.4375 25.1875 -6 25 C-8 23 -8 23 -8.23046875 20.90625 C-8.21628906 20.1121875 -8.20210938 19.318125 -8.1875 18.5 C-8.18105469 17.7059375 -8.17460938 16.911875 -8.16796875 16.09375 C-8 14 -8 14 -7 12 C-7 11.01 -7 10.02 -7 9 C-6.34 9 -5.68 9 -5 9 C-5 8.01 -5 7.02 -5 6 C-3.68 6 -2.36 6 -1 6 C-0.67 4.02 -0.34 2.04 0 0 Z " fill="#B79D39" transform="translate(91,196)"/>
<path d="M0 0 C5.28 0 10.56 0 16 0 C15.67 1.32 15.34 2.64 15 4 C12.525 3.01 12.525 3.01 10 2 C10 7.28 10 12.56 10 18 C8.68 18 7.36 18 6 18 C6 12.72 6 7.44 6 2 C4.02 2.33 2.04 2.66 0 3 C0 2.01 0 1.02 0 0 Z " fill="#AA9643" transform="translate(198,233)"/>
<path d="M0 0 C0.94875 0.04125 1.8975 0.0825 2.875 0.125 C2.545 1.445 2.215 2.765 1.875 4.125 C1.875 3.465 1.875 2.805 1.875 2.125 C0.225 2.125 -1.425 2.125 -3.125 2.125 C-1.59965593 4.87061932 -0.26843157 6.99386256 2.0625 9.125 C3.875 11.125 3.875 11.125 4.3125 13.6875 C3.875 16.125 3.875 16.125 2.75 17.9375 C0.09964043 19.61606106 -2.05746424 19.32950238 -5.125 19.125 C-5.455 17.475 -5.785 15.825 -6.125 14.125 C-5.465 14.785 -4.805 15.445 -4.125 16.125 C-2.805 16.125 -1.485 16.125 -0.125 16.125 C-0.49151724 12.82634487 -1.23106763 12.02650863 -3.75 9.6875 C-6.125 7.125 -6.125 7.125 -6.0625 4.4375 C-4.62250085 0.88550209 -3.89000757 0.1556003 0 0 Z " fill="#B49C3B" transform="translate(192.125,232.875)"/>
<path d="M0 0 C1.32 0 2.64 0 4 0 C4.10829314 2.89684158 4.18743954 5.78961019 4.25 8.6875 C4.28351563 9.50412109 4.31703125 10.32074219 4.3515625 11.16210938 C4.42031147 15.40735834 4.37134905 17.4321814 1.984375 21.08203125 C1.32953125 21.71496094 0.6746875 22.34789062 0 23 C-0.66 22.67 -1.32 22.34 -2 22 C-1.67 21.67 -1.34 21.34 -1 21 C-0.84313751 19.44051458 -0.74923361 17.87457332 -0.68359375 16.30859375 C-0.62075195 14.89223633 -0.62075195 14.89223633 -0.55664062 13.44726562 C-0.51732422 12.45404297 -0.47800781 11.46082031 -0.4375 10.4375 C-0.37272461 8.94186523 -0.37272461 8.94186523 -0.30664062 7.41601562 C-0.20019702 4.9441585 -0.09818072 2.4721969 0 0 Z " fill="#AD9741" transform="translate(161,234)"/>
<path d="M0 0 C0 0.33 0 0.66 0 1 C-2.31 1.66 -4.62 2.32 -7 3 C-2.38 2.67 2.24 2.34 7 2 C3.37542083 4.71843438 2.19115285 5.41789544 -2 6 C-0.68 6.33 0.64 6.66 2 7 C1.67 7.99 1.34 8.98 1 10 C0.01 10 -0.98 10 -2 10 C-2 9.34 -2 8.68 -2 8 C-2.7425 8.391875 -3.485 8.78375 -4.25 9.1875 C-7 10 -7 10 -9.3125 8.8125 C-11 7 -11 7 -11 4 C-10.34 4 -9.68 4 -9 4 C-9 3.01 -9 2.02 -9 1 C-5.57367167 -0.61798838 -3.61944899 -1.34053666 0 0 Z " fill="#9C8E4D" transform="translate(99,168)"/>
<path d="M0 0 C0.33 0 0.66 0 1 0 C0.85962479 1.81293089 0.71255111 3.6253443 0.5625 5.4375 C0.48128906 6.44683594 0.40007812 7.45617187 0.31640625 8.49609375 C0 11 0 11 -1 12 C-2.99784929 11.96777662 -4.99620053 11.93190957 -6.9921875 11.83984375 C-9.31970465 11.86157003 -9.31970465 11.86157003 -12 14 C-11.67 10.7 -11.34 7.4 -11 4 C-8.6568787 4.25561323 -6.32156597 4.59270772 -4 5 C-3.67 5.66 -3.34 6.32 -3 7 C-2.01 4.69 -1.02 2.38 0 0 Z " fill="#9B8D4E" transform="translate(295,182)"/>
<path d="M0 0 C3.4375 0.9375 3.4375 0.9375 6.4375 3.9375 C4.1275 5.9175 1.8175 7.8975 -0.5625 9.9375 C-2.8725 7.9575 -5.1825 5.9775 -7.5625 3.9375 C-5.07092564 0.64862184 -4.23359519 -0.0742736 0 0 Z " fill="#2D4F9E" transform="translate(201.5625,113.0625)"/>
<path d="M0 0 C1.60379341 -0.05416188 3.20811406 -0.09286638 4.8125 -0.125 C5.70582031 -0.14820313 6.59914062 -0.17140625 7.51953125 -0.1953125 C10 0 10 0 13 2 C13.375 4.9375 13.375 4.9375 13 8 C11.5 9.875 11.5 9.875 10 11 C7.525 10.01 7.525 10.01 5 9 C5 6.69 5 4.38 5 2 C3.35 1.67 1.7 1.34 0 1 C0 0.67 0 0.34 0 0 Z " fill="#A79445" transform="translate(125,233)"/>
<path d="M0 0 C0.33 1.65 0.66 3.3 1 5 C-0.65 5.66 -2.3 6.32 -4 7 C-3.67 8.32 -3.34 9.64 -3 11 C-4.32 10.67 -5.64 10.34 -7 10 C-7.33 8.35 -7.66 6.7 -8 5 C-8.33 5.66 -8.66 6.32 -9 7 C-9.66 6.01 -10.32 5.02 -11 4 C-8.69 3.34 -6.38 2.68 -4 2 C-7.63 2.33 -11.26 2.66 -15 3 C-15.33 2.34 -15.66 1.68 -16 1 C-10.10106757 -0.79074734 -6.06820868 -1.08360869 0 0 Z " fill="#C4A52F" transform="translate(107,169)"/>
<path d="M0 0 C1.9375 0.625 1.9375 0.625 4 2 C4.75 5.125 4.75 5.125 5 8 C4.37351562 8.08636719 3.74703125 8.17273438 3.1015625 8.26171875 C0.63217125 8.68626709 -1.64356842 9.14272416 -4 10 C-5.67613187 12.47014472 -5.67613187 12.47014472 -6 15 C-6.66 14.34 -7.32 13.68 -8 13 C-7.9375 10.625 -7.9375 10.625 -7 8 C-4.76261763 5.93472397 -2.72000458 4.36000229 0 3 C0 2.01 0 1.02 0 0 Z " fill="#988C50" transform="translate(109,200)"/>
<path d="M0 0 C1.32 0.33 2.64 0.66 4 1 C4 3.31 4 5.62 4 8 C4.99 8.33 5.98 8.66 7 9 C6.67 9.66 6.34 10.32 6 11 C5.01 10.67 4.02 10.34 3 10 C3.33 12.31 3.66 14.62 4 17 C2.68 17 1.36 17 0 17 C0 11.39 0 5.78 0 0 Z " fill="#BFA234" transform="translate(127,234)"/>
<path d="M0 0 C0.66 0.33 1.32 0.66 2 1 C2.05402274 3.10388569 2.09280256 5.20816714 2.125 7.3125 C2.14820313 8.48425781 2.17140625 9.65601563 2.1953125 10.86328125 C2 14 2 14 0 17 C-0.66 17 -1.32 17 -2 17 C-2 16.34 -2 15.68 -2 15 C-5.96 14.67 -9.92 14.34 -14 14 C-13.67 13.01 -13.34 12.02 -13 11 C-11.741875 10.979375 -10.48375 10.95875 -9.1875 10.9375 C-8.47980469 10.92589844 -7.77210938 10.91429687 -7.04296875 10.90234375 C-5 11 -5 11 -2 12 C-2 12.66 -2 13.32 -2 14 C-1.34 13.67 -0.68 13.34 0 13 C0 8.71 0 4.42 0 0 Z " fill="#576780" transform="translate(298,120)"/>
<path d="M0 0 C1.32 0.66 2.64 1.32 4 2 C3.42235003 5.3503698 2.41423154 6.68233772 0 9 C-1.17574711 11.09989652 -1.17574711 11.09989652 -2 13 C-4 11 -4 11 -4.375 7.625 C-4 4 -4 4 -2 1.5625 C-1.34 1.046875 -0.68 0.53125 0 0 Z " fill="#A0904A" transform="translate(95,182)"/>
<path d="M0 0 C0.99 0.33 1.98 0.66 3 1 C3 1.99 3 2.98 3 4 C2.01 4 1.02 4 0 4 C0.33 4.66 0.66 5.32 1 6 C2.32 6 3.64 6 5 6 C5.33 7.98 5.66 9.96 6 12 C5.34 12 4.68 12 4 12 C3.67 13.32 3.34 14.64 3 16 C1.23537317 12.91190305 1 11.76687864 1 8 C0.01 8 -0.98 8 -2 8 C-2.125 5.125 -2.125 5.125 -2 2 C-1.34 1.34 -0.68 0.68 0 0 Z " fill="#395595" transform="translate(313,193)"/>
<path d="M0 0 C0.5625 1.9375 0.5625 1.9375 1 4 C0.67 4.33 0.34 4.66 0 5 C-0.47551821 8.99435294 0.01735202 11.37903194 2.0625 14.75 C2.701875 15.8225 3.34125 16.895 4 18 C3.67 18.66 3.34 19.32 3 20 C-0.56920157 15.81541885 -3.75052403 11.80660468 -4.25 6.1875 C-4 4 -4 4 -3 3 C-3.66 2.34 -4.32 1.68 -5 1 C-3.35 0.67 -1.7 0.34 0 0 Z " fill="#C2A331" transform="translate(269,149)"/>
<path d="M0 0 C1.21236328 0.02707031 1.21236328 0.02707031 2.44921875 0.0546875 C3.37154297 0.08949219 3.37154297 0.08949219 4.3125 0.125 C3.3225 2.435 2.3325 4.745 1.3125 7.125 C-0.0075 7.125 -1.3275 7.125 -2.6875 7.125 C-2.6875 6.465 -2.6875 5.805 -2.6875 5.125 C-4.3375 4.795 -5.9875 4.465 -7.6875 4.125 C-7.6875 3.465 -7.6875 2.805 -7.6875 2.125 C-4.48369983 -0.01086678 -3.66810033 -0.10632175 0 0 Z " fill="#2C4E9F" transform="translate(112.6875,177.875)"/>
<path d="M0 0 C4.77609498 1.64178265 8.79382904 4.26546702 13 7 C12.01 8.485 12.01 8.485 11 10 C9.5 8.625 9.5 8.625 8 7 C8 6.34 8 5.68 8 5 C7.34 5 6.68 5 6 5 C6.33 6.32 6.66 7.64 7 9 C5.5 7.625 5.5 7.625 4 6 C4 5.34 4 4.68 4 4 C3.34 4 2.68 4 2 4 C2.66 6.31 3.32 8.62 4 11 C3.01 10.67 2.02 10.34 1 10 C0.67 6.7 0.34 3.4 0 0 Z " fill="#70756D" transform="translate(103,183)"/>
<path d="M0 0 C3.4375 0.1875 3.4375 0.1875 7 1 C7.66 2.32 8.32 3.64 9 5 C4.545 5.495 4.545 5.495 0 6 C-0.38218767 4.34385343 -0.71395102 2.67542976 -1 1 C-0.67 0.67 -0.34 0.34 0 0 Z " fill="#30509C" transform="translate(215,166)"/>
<path d="M0 0 C2.64 0 5.28 0 8 0 C8 0.66 8 1.32 8 2 C8.99 2 9.98 2 11 2 C11 2.66 11 3.32 11 4 C10.195625 4.12375 9.39125 4.2475 8.5625 4.375 C7.2940625 4.684375 7.2940625 4.684375 6 5 C5.67 5.66 5.34 6.32 5 7 C3.0625 6.3125 3.0625 6.3125 1 5 C0.25 2.375 0.25 2.375 0 0 Z " fill="#294CA1" transform="translate(284,177)"/>
<path d="M0 0 C2.00720923 0.28674418 4.0085944 0.61866701 6 1 C6.33 2.32 6.66 3.64 7 5 C5.68 5.33 4.36 5.66 3 6 C3.33 6.99 3.66 7.98 4 9 C2.68 9 1.36 9 0 9 C-0.33 8.01 -0.66 7.02 -1 6 C-3.50447516 4.78130071 -3.50447516 4.78130071 -6 4 C-6 3.67 -6 3.34 -6 3 C-2.7 3.33 0.6 3.66 4 4 C1.22739701 2.06201737 1.22739701 2.06201737 -1 1 C-0.67 0.67 -0.34 0.34 0 0 Z " fill="#7D7C64" transform="translate(303,166)"/>
<path d="M0 0 C0.33 0.66 0.66 1.32 1 2 C2.64363134 2.72159424 4.31050386 3.39351421 6 4 C5.01 5.485 5.01 5.485 4 7 C0.875 7.1875 0.875 7.1875 -2 7 C-2.33 8.32 -2.66 9.64 -3 11 C-3.99 9.68 -4.98 8.36 -6 7 C-4.04783565 5.04783565 -2.46800047 4.15173355 0 3 C0 2.01 0 1.02 0 0 Z " fill="#32519B" transform="translate(289,200)"/>
<path d="M0 0 C1.134375 0.020625 2.26875 0.04125 3.4375 0.0625 C4 2 4 2 4.4375 4.0625 C3.4375 5.0625 3.4375 5.0625 1.58984375 5.16015625 C-0.4609375 5.12760417 -2.51171875 5.09505208 -4.5625 5.0625 C-4.5625 0.08004386 -4.5625 0.08004386 0 0 Z " fill="#2D4F9E" transform="translate(182.5625,165.9375)"/>
<path d="M0 0 C0.66 0 1.32 0 2 0 C2.33 1.98 2.66 3.96 3 6 C5.31 6.33 7.62 6.66 10 7 C10.33 7.99 10.66 8.98 11 10 C9.741875 10.04125 8.48375 10.0825 7.1875 10.125 C6.47980469 10.14820313 5.77210938 10.17140625 5.04296875 10.1953125 C3 10 3 10 0 8 C-0.40843923 5.28796348 -0.13336867 2.7562858 0 0 Z " fill="#A79445" transform="translate(271,286)"/>
<path d="M0 0 C0.93619813 3.15506142 1.1057123 5.96586502 1.0625 9.25 C1.05347656 10.14203125 1.04445313 11.0340625 1.03515625 11.953125 C1.02355469 12.62859375 1.01195313 13.3040625 1 14 C1.639375 13.835 2.27875 13.67 2.9375 13.5 C6.97586652 12.84067485 10.91807258 12.91996221 15 13 C15 13.33 15 13.66 15 14 C13.2508503 14.33776684 11.50063855 14.67003671 9.75 15 C8.28820312 15.2784375 8.28820312 15.2784375 6.796875 15.5625 C4 16 4 16 0 16 C-0.98275588 13.05173237 -1.13414725 11.07347496 -1.125 8 C-1.12757812 7.13375 -1.13015625 6.2675 -1.1328125 5.375 C-1 3 -1 3 0 0 Z " fill="#5A687D" transform="translate(101,121)"/>
<path d="M0 0 C3.31012244 3.31012244 3.50351065 4.53159589 4 9 C1.69 9 -0.62 9 -3 9 C-2.01 6.03 -1.02 3.06 0 0 Z " fill="#2D4E9F" transform="translate(224,272)"/>
<path d="M0 0 C-2.93828597 2.50298434 -5.17902761 3.46930939 -9 4 C-7.68 4.33 -6.36 4.66 -5 5 C-5.33 5.99 -5.66 6.98 -6 8 C-6.99 8 -7.98 8 -9 8 C-9 7.34 -9 6.68 -9 6 C-9.99 5.67 -10.98 5.34 -12 5 C-11.67 4.34 -11.34 3.68 -11 3 C-11.99 2.67 -12.98 2.34 -14 2 C-9.15758367 0.66416101 -5.06562383 -0.25328119 0 0 Z " fill="#787968" transform="translate(106,170)"/>
<path d="M0 0 C2.475 0.495 2.475 0.495 5 1 C5 2.98 5 4.96 5 7 C3.0625 7.5625 3.0625 7.5625 1 8 C0 7 0 7 -0.0625 3.4375 C-0.041875 2.303125 -0.02125 1.16875 0 0 Z " fill="#385596" transform="translate(130,235)"/>
<path d="M0 0 C1.45823212 -0.0270043 2.91660675 -0.04639787 4.375 -0.0625 C5.18710937 -0.07410156 5.99921875 -0.08570313 6.8359375 -0.09765625 C9 0 9 0 11 1 C11 3.31 11 5.62 11 8 C10.34 8 9.68 8 9 8 C8.67 6.68 8.34 5.36 8 4 C5.36 3.34 2.72 2.68 0 2 C0 1.34 0 0.68 0 0 Z " fill="#B49B3C" transform="translate(278,262)"/>
<path d="M0 0 C1.45606519 4.52092968 0.27032841 7.51648796 -1 12 C-1.99 11.67 -2.98 11.34 -4 11 C-4.17754126 7.09409237 -4.20731737 4.31097606 -2 1 C-1.34 0.67 -0.68 0.34 0 0 Z " fill="#C2A331" transform="translate(99,187)"/>
<path d="M0 0 C0.33 0 0.66 0 1 0 C1.31563182 5.26053037 0.66590937 8.44573816 -2 13 C-2.99 12.67 -3.98 12.34 -5 12 C-6 9 -6 9 -5 6 C-3.68 6 -2.36 6 -1 6 C-0.67 4.02 -0.34 2.04 0 0 Z " fill="#A89444" transform="translate(91,196)"/>
<path d="M0 0 C2.97 0 5.94 0 9 0 C8.01 0.495 8.01 0.495 7 1 C7 1.66 7 2.32 7 3 C9.475 3.99 9.475 3.99 12 5 C11.01 5.33 10.02 5.66 9 6 C7.31503702 5.03114628 5.64821244 4.03013277 4 3 C3.01 3 2.02 3 1 3 C0.67 2.01 0.34 1.02 0 0 Z " fill="#BFA233" transform="translate(103,182)"/>
<path d="M0 0 C1.9375 0.6875 1.9375 0.6875 4 2 C4.9375 4.25 4.9375 4.25 5 7 C3.5625 10.3125 3.5625 10.3125 2 13 C1.67 13 1.34 13 1 13 C1.33 10.03 1.66 7.06 2 4 C1.34 4 0.68 4 0 4 C0 2.68 0 1.36 0 0 Z " fill="#C0A332" transform="translate(131,151)"/>
<path d="M0 0 C0.99 0.33 1.98 0.66 3 1 C3 4 3 4 0.875 6.375 C-2.01789329 9.01633735 -4.96250644 11.52762152 -8 14 C-8 13.01 -8 12.02 -8 11 C-7.236875 10.4225 -6.47375 9.845 -5.6875 9.25 C-2.27944062 6.39674098 -1.50812337 4.12749553 0 0 Z " fill="#A59346" transform="translate(131,161)"/>
<path d="M0 0 C0.66 0.33 1.32 0.66 2 1 C2 1.66 2 2.32 2 3 C2.66 3 3.32 3 4 3 C3.45773019 6.79588866 1.79872437 8.47211993 -1 11 C-1.125 5.25 -1.125 5.25 0 3 C0 2.01 0 1.02 0 0 Z " fill="#C3A430" transform="translate(84,205)"/>
<path d="M0 0 C0.77601562 0.09023437 1.55203125 0.18046875 2.3515625 0.2734375 C4.375 0.625 4.375 0.625 6.375 1.625 C6.375 2.285 6.375 2.945 6.375 3.625 C5.055 3.625 3.735 3.625 2.375 3.625 C2.375 2.965 2.375 2.305 2.375 1.625 C-1.255 1.955 -4.885 2.285 -8.625 2.625 C-8.625 1.965 -8.625 1.305 -8.625 0.625 C-5.55812991 -0.31326619 -3.17492204 -0.39288333 0 0 Z " fill="#3E5991" transform="translate(113.625,132.375)"/>
<path d="M0 0 C2.475 0.99 2.475 0.99 5 2 C5 3.32 5 4.64 5 6 C4.34 6 3.68 6 3 6 C2.67 6.99 2.34 7.98 2 9 C0 2.25 0 2.25 0 0 Z " fill="#395695" transform="translate(103,214)"/>
<path d="M0 0 C4 1 4 1 5.75 3.375 C7 6 7 6 7 9 C6.01 9 5.02 9 4 9 C2.68 6.03 1.36 3.06 0 0 Z " fill="#475D8B" transform="translate(126,141)"/>
<path d="M0 0 C0.99 0 1.98 0 3 0 C3.33 1.98 3.66 3.96 4 6 C2.02 6.33 0.04 6.66 -2 7 C-1.34 4.69 -0.68 2.38 0 0 Z " fill="#7F7D62" transform="translate(242,238)"/>
<path d="M0 0 C0.33 0 0.66 0 1 0 C0.67 3.3 0.34 6.6 0 10 C-1.65 10.33 -3.3 10.66 -5 11 C-3.35 7.37 -1.7 3.74 0 0 Z " fill="#C7A62D" transform="translate(295,182)"/>
<path d="M0 0 C1 2 1 2 0.0625 5.125 C-0.288125 6.07375 -0.63875 7.0225 -1 8 C-2.32 7.34 -3.64 6.68 -5 6 C-3.63016497 2.83884224 -3.0109362 2.0072908 0 0 Z " fill="#355399" transform="translate(297,212)"/>
<path d="M0 0 C1.32 0.33 2.64 0.66 4 1 C4.625 3.375 4.625 3.375 5 6 C4.34 6.66 3.68 7.32 3 8 C2.34 7.01 1.68 6.02 1 5 C1.33 4.34 1.66 3.68 2 3 C1.34 3 0.68 3 0 3 C0 2.01 0 1.02 0 0 Z " fill="#3B5694" transform="translate(85,195)"/>
<path d="M0 0 C0.33 0.99 0.66 1.98 1 3 C-0.75 6.1875 -0.75 6.1875 -3 9 C-3.99 9 -4.98 9 -6 9 C-4.68775452 5.06326356 -3.08089673 2.77280706 0 0 Z " fill="#425B8F" transform="translate(274,137)"/>
<path d="M0 0 C1.32 0.66 2.64 1.32 4 2 C3.835 2.61875 3.67 3.2375 3.5 3.875 C2.92365356 5.96063386 2.92365356 5.96063386 3 8 C2.34 8 1.68 8 1 8 C1 7.34 1 6.68 1 6 C0.34 6 -0.32 6 -1 6 C-1.042721 4.33388095 -1.04063832 2.66617115 -1 1 C-0.67 0.67 -0.34 0.34 0 0 Z " fill="#9C8E4D" transform="translate(272,207)"/>
<path d="M0 0 C0 1.65 0 3.3 0 5 C-1.65 5 -3.3 5 -5 5 C-5 4.34 -5 3.68 -5 3 C-5.66 3.66 -6.32 4.32 -7 5 C-7 3.68 -7 2.36 -7 1 C-1.125 0 -1.125 0 0 0 Z " fill="#928854" transform="translate(137,149)"/>
<path d="M0 0 C6.4 -0.36923077 6.4 -0.36923077 9.4375 1.5 C9.953125 1.995 10.46875 2.49 11 3 C7.70303895 4.09898702 6.59505097 3.87124444 3.3125 3.0625 C2.10013672 2.77052734 2.10013672 2.77052734 0.86328125 2.47265625 C-0.05904297 2.23869141 -0.05904297 2.23869141 -1 2 C-0.67 1.34 -0.34 0.68 0 0 Z " fill="#C7A62D" transform="translate(298,167)"/>
<path d="M0 0 C0.99 0.66 1.98 1.32 3 2 C1.02 2.99 1.02 2.99 -1 4 C-0.67 4.66 -0.34 5.32 0 6 C-0.66 6 -1.32 6 -2 6 C-2.33 6.99 -2.66 7.98 -3 9 C-3.33 6.36 -3.66 3.72 -4 1 C-2.68 1.33 -1.36 1.66 0 2 C0 1.34 0 0.68 0 0 Z " fill="#817E61" transform="translate(267,147)"/>
<path d="M0 0 C0.66 0 1.32 0 2 0 C5 4.38461538 5 4.38461538 5 7 C1.125 6.125 1.125 6.125 0 5 C-0.04063832 3.33382885 -0.042721 1.66611905 0 0 Z " fill="#C8A72C" transform="translate(105,187)"/>
<path d="M0 0 C0.66 0.66 1.32 1.32 2 2 C-0.31537955 5.72114571 -2.28579473 8.61229661 -6 11 C-4.18690997 7.22272911 -2.0926741 3.62730178 0 0 Z " fill="#59687E" transform="translate(129,162)"/>
<path d="M0 0 C0.66 0.33 1.32 0.66 2 1 C2.33 1.99 2.66 2.98 3 4 C3.66 4.66 4.32 5.32 5 6 C4.01 6 3.02 6 2 6 C1.34 6.66 0.68 7.32 0 8 C-1.125 5.6875 -1.125 5.6875 -2 3 C-1.34 2.01 -0.68 1.02 0 0 Z " fill="#968A51" transform="translate(275,128)"/>
<path d="M0 0 C2.125 0.9375 2.125 0.9375 4 2 C4 2.66 4 3.32 4 4 C2.02 4 0.04 4 -2 4 C-2 3.01 -2 2.02 -2 1 C-1.34 0.67 -0.68 0.34 0 0 Z " fill="#2B4DA0" transform="translate(109,203)"/>
<path d="M0 0 C1.98 0.99 1.98 0.99 4 2 C4 2.66 4 3.32 4 4 C3.34 4 2.68 4 2 4 C2.66 6.31 3.32 8.62 4 11 C3.01 10.67 2.02 10.34 1 10 C0.67 6.7 0.34 3.4 0 0 Z " fill="#8F8656" transform="translate(103,183)"/>
<path d="M0 0 C-0.375 1.9375 -0.375 1.9375 -1 4 C-1.99 4.495 -1.99 4.495 -3 5 C-3.99 4.34 -4.98 3.68 -6 3 C-6 2.34 -6 1.68 -6 1 C-3 0 -3 0 0 0 Z " fill="#C0A332" transform="translate(312,171)"/>
<path d="M0 0 C1.9375 0.625 1.9375 0.625 4 2 C4.75 5.125 4.75 5.125 5 8 C3.02 8 1.04 8 -1 8 C-1 7.67 -1 7.34 -1 7 C0.65 7 2.3 7 4 7 C2.02 3.535 2.02 3.535 0 0 Z " fill="#797A66" transform="translate(109,200)"/>
<path d="M0 0 C0.33 1.32 0.66 2.64 1 4 C0.34 4 -0.32 4 -1 4 C-1 6.31 -1 8.62 -1 11 C-1.33 11 -1.66 11 -2 11 C-2.33 7.7 -2.66 4.4 -3 1 C-2.01 0.67 -1.02 0.34 0 0 Z " fill="#83805F" transform="translate(324,193)"/>
<path d="M0 0 C2.97 0.33 5.94 0.66 9 1 C9 1.33 9 1.66 9 2 C7.02 2 5.04 2 3 2 C2.67 3.32 2.34 4.64 2 6 C1.01 4.68 0.02 3.36 -1 2 C-0.67 1.34 -0.34 0.68 0 0 Z " fill="#767869" transform="translate(284,205)"/>
<path d="M0 0 C0.99 0.66 1.98 1.32 3 2 C2.05125 2.309375 1.1025 2.61875 0.125 2.9375 C-2.86080408 3.87394742 -2.86080408 3.87394742 -5 5 C-5.33 4.01 -5.66 3.02 -6 2 C-3.1875 0.875 -3.1875 0.875 0 0 Z " fill="#928854" transform="translate(295,197)"/>
<path d="M0 0 C0.6875 1.8125 0.6875 1.8125 1 4 C-0.4375 5.75 -0.4375 5.75 -2 7 C-2.185625 6.071875 -2.185625 6.071875 -2.375 5.125 C-2.87197356 2.80879168 -2.87197356 2.80879168 -5 1 C-3.35 0.67 -1.7 0.34 0 0 Z " fill="#B0993E" transform="translate(269,149)"/>
<path d="M0 0 C2.41466913 1.20733457 4.69115369 2.60254039 7 4 C6.01 4.495 6.01 4.495 5 5 C4.67 5.99 4.34 6.98 4 8 C3.566875 7.0409375 3.566875 7.0409375 3.125 6.0625 C2.17176549 3.84793921 2.17176549 3.84793921 0 3 C0 2.01 0 1.02 0 0 Z " fill="#978B50" transform="translate(273,168)"/>
</svg>
